<svg width="103" height="49" viewBox="0 0 103 49" fill="none" xmlns="http://www.w3.org/2000/svg">
<path d="M90.1249 28.4061H9.39453V6.52673H90.0502C90.7562 6.52673 91.4457 6.76572 92.0022 7.21072L101.895 15.089C103.357 16.2509 103.374 18.5336 101.928 19.7203L92.3178 27.5985C91.6949 28.1095 90.914 28.3897 90.1166 28.3897V28.4061H90.1249Z" fill="url(#paint0_linear_50_1797)"/>
<path d="M63.5111 25.6949H85.4817C86.3622 25.6949 87.0765 26.4449 87.0765 27.3596V33.0952C87.0765 34.0099 86.3622 34.7599 85.4817 34.7599H63.5693C63.1706 34.7599 62.7885 34.6033 62.4977 34.3231L59.4908 31.4718C58.8014 30.8207 58.7931 29.6918 59.4742 29.0242L62.4147 26.14C62.7137 25.8515 63.1041 25.6867 63.5111 25.6867V25.6949Z" fill="white"/>
<path d="M7.17687 46.8986L6.40437 44.9208H3.87921L3.10671 46.8986H2.36743L4.82614 40.6356H5.48235L7.92445 46.8986H7.16856H7.17687ZM6.18009 44.2698L5.44082 42.3002C5.42421 42.2508 5.39098 42.1684 5.35775 42.0447C5.31622 41.9294 5.283 41.8058 5.24146 41.6821C5.19993 41.5585 5.16671 41.4514 5.14179 41.3772C5.11687 41.4926 5.08364 41.608 5.05042 41.7233C5.01719 41.8387 4.98396 41.9459 4.95074 42.0447C4.91751 42.1436 4.89259 42.226 4.86767 42.292L4.12009 44.2615H6.18009V44.2698Z" fill="white"/>
<path d="M12.5925 42.226V46.9068H12.0111L11.9114 46.2475H11.8782C11.7785 46.4124 11.6539 46.5442 11.5044 46.6596C11.3466 46.7667 11.1721 46.8491 10.9811 46.9068C10.79 46.9645 10.5824 46.9892 10.3664 46.9892C9.99261 46.9892 9.68527 46.9315 9.42777 46.8079C9.17027 46.6843 8.98753 46.503 8.85462 46.2558C8.73003 46.0086 8.66357 45.6872 8.66357 45.2916V42.226H9.38624V45.2422C9.38624 45.6295 9.47761 45.9261 9.65204 46.1157C9.82648 46.3052 10.1006 46.4041 10.4661 46.4041C10.8316 46.4041 11.0974 46.3382 11.305 46.2063C11.5127 46.0745 11.6622 45.8849 11.7536 45.6295C11.8449 45.374 11.8865 45.0609 11.8865 44.69V42.226H12.6008H12.5925Z" fill="white"/>
<path d="M15.6245 46.4041C15.7408 46.4041 15.8654 46.4041 15.99 46.3712C16.1146 46.3465 16.2143 46.33 16.289 46.297V46.8491C16.206 46.8821 16.0897 46.9151 15.9402 46.948C15.7906 46.9728 15.6494 46.981 15.5082 46.981C15.259 46.981 15.0348 46.9398 14.8271 46.8491C14.6194 46.7667 14.4616 46.6184 14.337 46.4041C14.2124 46.1981 14.1543 45.9097 14.1543 45.5388V42.7617H13.4814V42.4156L14.1543 42.1354L14.4367 41.1218H14.8686V42.2096H16.2475V42.7617H14.8686V45.5141C14.8686 45.8026 14.9351 46.0251 15.0763 46.1734C15.2092 46.3217 15.3919 46.3877 15.6245 46.3877V46.4041Z" fill="white"/>
<path d="M21.3059 44.5582C21.3059 44.9455 21.2561 45.2834 21.1564 45.5883C21.0567 45.8932 20.9155 46.1404 20.7245 46.3547C20.5334 46.5607 20.3092 46.7173 20.035 46.8327C19.7692 46.9398 19.4619 46.9975 19.1213 46.9975C18.8057 46.9975 18.515 46.9398 18.2575 46.8327C17.9917 46.7255 17.7674 46.5689 17.5763 46.3547C17.3853 46.1487 17.2358 45.8932 17.1361 45.5883C17.0281 45.2834 16.9783 44.9455 16.9783 44.5582C16.9783 44.0472 17.0613 43.6105 17.2441 43.2479C17.4185 42.8853 17.6677 42.6133 18 42.4238C18.3239 42.2343 18.7143 42.1436 19.1629 42.1436C19.6114 42.1436 19.9686 42.2425 20.2925 42.432C20.6165 42.6216 20.8657 42.9018 21.0484 43.2561C21.2312 43.6187 21.3142 44.0555 21.3142 44.5582H21.3059ZM17.7175 44.5582C17.7175 44.929 17.7674 45.2587 17.8671 45.5388C17.9667 45.819 18.1246 46.025 18.3322 46.1816C18.5399 46.33 18.814 46.4124 19.1379 46.4124C19.4619 46.4124 19.736 46.3382 19.9437 46.1816C20.1513 46.0333 20.3092 45.819 20.4088 45.5388C20.5085 45.2587 20.5584 44.9373 20.5584 44.5582C20.5584 44.1791 20.5085 43.866 20.4088 43.594C20.3092 43.3221 20.1513 43.1078 19.9437 42.9677C19.736 42.8194 19.4619 42.7452 19.1296 42.7452C18.6396 42.7452 18.2741 42.9018 18.0498 43.2314C17.8172 43.5528 17.7092 43.9978 17.7092 44.5664H17.7175V44.5582Z" fill="white"/>
<path d="M27.6605 42.1354C28.1838 42.1354 28.5742 42.2672 28.8317 42.5392C29.0975 42.8029 29.2304 43.2396 29.2304 43.833V46.8986H28.5244V43.8659C28.5244 43.4869 28.4413 43.1984 28.2752 43.0171C28.109 42.8276 27.8681 42.737 27.5442 42.737C27.0873 42.737 26.7551 42.8688 26.5474 43.1325C26.3398 43.3962 26.2401 43.7835 26.2401 44.2945V46.9151H25.534V43.8824C25.534 43.627 25.5008 43.4209 25.426 43.2479C25.3513 43.0748 25.2433 42.9512 25.0938 42.8688C24.9443 42.7864 24.7615 42.7452 24.5456 42.7452C24.2299 42.7452 23.9807 42.8111 23.7897 42.9347C23.5986 43.0666 23.4657 43.2561 23.3744 43.5034C23.2913 43.7588 23.2498 44.0637 23.2498 44.4346V46.9068H22.5354V42.226H23.1085L23.2165 42.8853H23.2581C23.3577 42.7205 23.474 42.5886 23.6152 42.4733C23.7564 42.3661 23.9226 42.2837 24.097 42.2178C24.2714 42.1601 24.4625 42.1354 24.6619 42.1354C25.019 42.1354 25.3181 42.2013 25.5589 42.3332C25.7998 42.465 25.9743 42.671 26.0823 42.9347H26.1155C26.2733 42.6628 26.481 42.465 26.7551 42.3332C27.0209 42.2013 27.3199 42.1354 27.6439 42.1354H27.6605Z" fill="white"/>
<path d="M32.4699 42.1436C33.0348 42.1436 33.4501 42.2672 33.7242 42.5145C33.9983 42.7617 34.1312 43.1655 34.1312 43.7176V46.8986H33.6079L33.475 46.2063H33.4418C33.3089 46.3794 33.176 46.5195 33.0265 46.6349C32.8853 46.7502 32.7191 46.8409 32.5281 46.8986C32.337 46.9563 32.1128 46.981 31.8387 46.981C31.5479 46.981 31.2987 46.9315 31.0745 46.8327C30.8502 46.7338 30.6758 46.5772 30.5512 46.3794C30.4266 46.1734 30.3601 45.9179 30.3601 45.613C30.3601 45.1433 30.5429 44.7889 30.9166 44.5417C31.2904 44.2945 31.8553 44.1544 32.6195 44.1297L33.4335 44.0967V43.8083C33.4335 43.4045 33.3504 43.1243 33.1677 42.9595C32.9933 42.7946 32.7441 42.7205 32.4284 42.7205C32.1792 42.7205 31.9466 42.7534 31.7224 42.8276C31.4981 42.9018 31.2821 42.9842 31.0828 43.0831L30.8668 42.5474C31.0828 42.4403 31.3237 42.3496 31.5978 42.2672C31.8719 42.1931 32.1626 42.1519 32.4699 42.1519V42.1436ZM33.4252 44.5911L32.7108 44.6241C32.1211 44.6488 31.7058 44.7395 31.4649 44.9125C31.224 45.0856 31.0994 45.3163 31.0994 45.6212C31.0994 45.885 31.1824 46.091 31.3403 46.2146C31.5064 46.3464 31.7224 46.4041 31.9882 46.4041C32.4035 46.4041 32.7524 46.2888 33.0182 46.058C33.284 45.8273 33.4169 45.4812 33.4169 45.0197V44.5911H33.4252Z" fill="white"/>
<path d="M37.1216 46.4041C37.2379 46.4041 37.3625 46.4041 37.4871 46.3712C37.6117 46.3465 37.7113 46.33 37.7861 46.297V46.8491C37.703 46.8821 37.5867 46.9151 37.4372 46.948C37.2877 46.9728 37.1465 46.981 37.0053 46.981C36.7561 46.981 36.5318 46.9398 36.3242 46.8491C36.1165 46.7667 35.9587 46.6184 35.8341 46.4041C35.7095 46.1981 35.6513 45.9097 35.6513 45.5388V42.7617H34.9785V42.4156L35.6513 42.1354L35.9338 41.1218H36.3657V42.2096H37.7446V42.7617H36.3657V45.5141C36.3657 45.8026 36.4321 46.0251 36.5734 46.1734C36.7063 46.3217 36.889 46.3877 37.1216 46.3877V46.4041Z" fill="white"/>
<path d="M39.1067 40.4708C39.223 40.4708 39.3227 40.5037 39.4141 40.5861C39.4971 40.6603 39.5387 40.7757 39.5387 40.9405C39.5387 41.1053 39.4971 41.2124 39.4141 41.2866C39.331 41.3608 39.2313 41.402 39.1067 41.402C38.9821 41.402 38.8825 41.369 38.7994 41.2866C38.7163 41.2124 38.6748 41.0971 38.6748 40.9405C38.6748 40.7839 38.7163 40.6603 38.7994 40.5861C38.8825 40.512 38.9821 40.4708 39.1067 40.4708ZM39.4556 42.2178V46.8986H38.7413V42.2178H39.4556Z" fill="white"/>
<path d="M42.853 46.9892C42.4294 46.9892 42.0556 46.9068 41.7317 46.7255C41.4077 46.5525 41.1585 46.2888 40.9758 45.9262C40.793 45.5718 40.7017 45.1186 40.7017 44.5829C40.7017 44.0472 40.8013 43.5528 40.9841 43.1984C41.1751 42.8358 41.4409 42.5721 41.7732 42.3991C42.1055 42.226 42.4875 42.1354 42.9195 42.1354C43.1521 42.1354 43.3846 42.1601 43.6006 42.2095C43.8166 42.259 43.9993 42.3167 44.1405 42.3908L43.9246 42.9842C43.7834 42.9265 43.6172 42.8771 43.4262 42.8276C43.2351 42.7782 43.0607 42.7617 42.9029 42.7617C42.5706 42.7617 42.3048 42.8358 42.0888 42.9677C41.8729 43.1078 41.715 43.3138 41.5988 43.5858C41.4908 43.8577 41.4409 44.1873 41.4409 44.5829C41.4409 44.9785 41.4908 45.2834 41.5988 45.5553C41.7067 45.8273 41.8563 46.025 42.0722 46.1651C42.2799 46.3052 42.5374 46.3794 42.853 46.3794C43.1022 46.3794 43.3265 46.3547 43.5259 46.297C43.7252 46.2476 43.908 46.1816 44.0741 46.1157V46.7502C43.9163 46.8327 43.7418 46.8903 43.5508 46.9315C43.3597 46.9727 43.1271 46.9975 42.8613 46.9975L42.853 46.9892Z" fill="white"/>
<path d="M49.2905 42.1354C49.6892 42.1354 50.0381 42.226 50.3205 42.3991C50.6112 42.5721 50.8272 42.8194 50.9767 43.1408C51.1262 43.4539 51.2093 43.8247 51.2093 44.2533V44.69H47.9531C47.9615 45.2422 48.1027 45.6542 48.3685 45.9426C48.6343 46.2311 49.0164 46.3712 49.4981 46.3712C49.7972 46.3712 50.063 46.3464 50.2873 46.2888C50.5198 46.2311 50.7524 46.1569 51.0016 46.0498V46.6761C50.7607 46.7832 50.5281 46.8574 50.2956 46.9068C50.063 46.9563 49.7889 46.981 49.4649 46.981C49.0164 46.981 48.6177 46.8903 48.2771 46.7008C47.9365 46.5195 47.679 46.2476 47.488 45.8932C47.3052 45.5388 47.2056 45.1021 47.2056 44.5911C47.2056 44.0802 47.2886 43.6517 47.4631 43.2809C47.6375 42.91 47.8784 42.6298 48.1857 42.432C48.5014 42.2343 48.8669 42.1354 49.2822 42.1354H49.2905ZM49.2905 42.7122C48.9084 42.7122 48.6094 42.8358 48.3768 43.0831C48.1442 43.3303 48.0113 43.6764 47.9698 44.1214H50.4617C50.4617 43.8412 50.4119 43.594 50.3288 43.388C50.2457 43.1737 50.1128 43.0089 49.9467 42.8935C49.7723 42.7782 49.5563 42.7122 49.2822 42.7122H49.2905Z" fill="white"/>
<path d="M53.5517 44.5005L51.9236 42.2178H52.7377L53.9836 44.0225L55.2213 42.2178H56.027L54.399 44.5005L56.1184 46.8986H55.3044L53.9836 44.9949L52.6546 46.8986H51.8489L53.56 44.5005H53.5517Z" fill="white"/>
<path d="M58.926 46.9892C58.5024 46.9892 58.1286 46.9068 57.8047 46.7255C57.4807 46.5525 57.2315 46.2888 57.0488 45.9262C56.866 45.5718 56.7747 45.1186 56.7747 44.5829C56.7747 44.0472 56.8743 43.5528 57.0571 43.1984C57.2481 42.8358 57.5139 42.5721 57.8462 42.3991C58.1784 42.226 58.5605 42.1354 58.9925 42.1354C59.2251 42.1354 59.4576 42.1601 59.6736 42.2095C59.8896 42.259 60.0723 42.3167 60.2135 42.3908L59.9976 42.9842C59.8564 42.9265 59.6902 42.8771 59.4992 42.8276C59.3081 42.7782 59.1337 42.7617 58.9759 42.7617C58.6436 42.7617 58.3778 42.8358 58.1618 42.9677C57.9459 43.1078 57.788 43.3138 57.6718 43.5858C57.5638 43.8577 57.5139 44.1873 57.5139 44.5829C57.5139 44.9785 57.5638 45.2834 57.6718 45.5553C57.7797 45.8273 57.9293 46.025 58.1452 46.1651C58.3529 46.3052 58.6104 46.3794 58.926 46.3794C59.1752 46.3794 59.3995 46.3547 59.5989 46.297C59.7982 46.2476 59.981 46.1816 60.1471 46.1157V46.7502C59.9893 46.8327 59.8148 46.8903 59.6238 46.9315C59.4327 46.9727 59.2001 46.9975 58.9343 46.9975H58.926V46.9892Z" fill="white"/>
<path d="M61.9744 40.2565V42.2425C61.9744 42.3579 61.9744 42.4733 61.9661 42.5886C61.9661 42.704 61.9494 42.8111 61.9328 42.91H61.9827C62.0824 42.7452 62.2069 42.6051 62.3565 42.4897C62.506 42.3744 62.6804 42.292 62.8715 42.2343C63.0625 42.1766 63.2702 42.1519 63.4778 42.1519C63.8516 42.1519 64.1756 42.2095 64.4248 42.3332C64.674 42.4568 64.8733 42.6381 64.9979 42.8853C65.1225 43.1408 65.189 43.4622 65.189 43.8577V46.9068H64.4829V43.9072C64.4829 43.5198 64.3915 43.2232 64.2171 43.0336C64.0344 42.8441 63.7603 42.7452 63.3948 42.7452C63.0293 42.7452 62.7635 42.8111 62.5558 42.943C62.3482 43.0748 62.1986 43.2726 62.1073 43.5281C62.0159 43.7835 61.9744 44.0967 61.9744 44.4675V46.9151H61.26V40.273H61.9827V40.2565H61.9744Z" fill="white"/>
<path d="M68.4284 42.1436C68.9933 42.1436 69.4086 42.2672 69.6827 42.5145C69.9568 42.7617 70.0897 43.1655 70.0897 43.7176V46.8986H69.5664L69.4335 46.2063H69.4003C69.2674 46.3794 69.1345 46.5195 68.985 46.6349C68.8438 46.7502 68.6776 46.8409 68.4866 46.8986C68.2955 46.9563 68.0713 46.981 67.7972 46.981C67.5064 46.981 67.2572 46.9315 67.033 46.8327C66.8087 46.7338 66.6343 46.5772 66.5097 46.3794C66.3851 46.1734 66.3186 45.9179 66.3186 45.613C66.3186 45.1433 66.5014 44.7889 66.8751 44.5417C67.2489 44.2945 67.8138 44.1544 68.578 44.1297L69.392 44.0967V43.8083C69.392 43.4045 69.3089 43.1243 69.1262 42.9595C68.9518 42.7946 68.7026 42.7205 68.3869 42.7205C68.1377 42.7205 67.9051 42.7534 67.6809 42.8276C67.4566 42.9018 67.2406 42.9842 67.0413 43.0831L66.8253 42.5474C67.0413 42.4403 67.2822 42.3496 67.5563 42.2672C67.8304 42.1931 68.1211 42.1519 68.4284 42.1519V42.1436ZM69.3837 44.5911L68.6693 44.6241C68.0796 44.6488 67.6643 44.7395 67.4234 44.9125C67.1825 45.0856 67.0579 45.3163 67.0579 45.6212C67.0579 45.885 67.1409 46.091 67.2988 46.2146C67.4649 46.3464 67.6809 46.4041 67.9467 46.4041C68.362 46.4041 68.7109 46.2888 68.9767 46.058C69.2425 45.8273 69.3754 45.4812 69.3754 45.0197V44.5911H69.3837Z" fill="white"/>
<path d="M73.7945 42.1354C74.351 42.1354 74.7746 42.2672 75.0654 42.5474C75.3561 42.8194 75.4973 43.2561 75.4973 43.8577V46.9068H74.7913V43.9072C74.7913 43.5198 74.6999 43.2232 74.5255 43.0336C74.3427 42.8441 74.0686 42.7452 73.7031 42.7452C73.1798 42.7452 72.8143 42.8935 72.5984 43.182C72.3824 43.4704 72.2827 43.8989 72.2827 44.4593V46.9068H71.5684V42.226H72.1415L72.2495 42.9018H72.291C72.3907 42.737 72.5236 42.5969 72.6731 42.4815C72.8226 42.3661 73.0054 42.2837 73.1964 42.226C73.3875 42.1683 73.5868 42.1436 73.8028 42.1436H73.7945V42.1354Z" fill="white"/>
<path d="M78.2882 49C77.6652 49 77.1917 48.8846 76.8512 48.6539C76.5189 48.4231 76.3445 48.1017 76.3445 47.6897C76.3445 47.4013 76.4359 47.1458 76.6269 46.9398C76.8179 46.7338 77.0754 46.5937 77.4077 46.5277C77.2831 46.4701 77.1751 46.3876 77.0921 46.2723C77.009 46.1569 76.9592 46.025 76.9592 45.8767C76.9592 45.7037 77.009 45.5553 77.1087 45.4235C77.2084 45.2916 77.3496 45.168 77.5489 45.0526C77.2997 44.9537 77.1004 44.7889 76.9508 44.5417C76.793 44.3027 76.7183 44.0308 76.7183 43.7094C76.7183 43.3715 76.793 43.0831 76.9259 42.8523C77.0671 42.6133 77.2665 42.432 77.5323 42.3084C77.7981 42.1848 78.1221 42.1189 78.5042 42.1189C78.5872 42.1189 78.6703 42.1189 78.7533 42.1189C78.8364 42.1189 78.9195 42.1354 78.9942 42.1519C79.069 42.1519 79.1438 42.1766 79.1936 42.2013H80.8134V42.6628L79.9412 42.7699C80.0242 42.8771 80.099 43.0171 80.1571 43.1737C80.2153 43.3303 80.2402 43.5034 80.2402 43.6929C80.2402 44.1626 80.0824 44.5335 79.7667 44.8054C79.4511 45.0774 79.0108 45.2174 78.4543 45.2174C78.3214 45.2174 78.1885 45.2092 78.0473 45.1845C77.9061 45.2587 77.7981 45.3493 77.7234 45.44C77.6486 45.5388 77.6154 45.646 77.6154 45.7696C77.6154 45.8602 77.6403 45.9344 77.6984 45.9838C77.7566 46.0415 77.8313 46.0745 77.9393 46.0992C78.0473 46.1239 78.1719 46.1322 78.3214 46.1322H79.1521C79.6671 46.1322 80.0575 46.2393 80.3316 46.4536C80.6057 46.6678 80.7469 46.981 80.7469 47.3848C80.7469 47.904 80.5309 48.2995 80.1073 48.5797C79.6837 48.8599 79.069 48.9918 78.2633 48.9918H78.2882V49ZM78.3131 48.4479C78.7035 48.4479 79.0275 48.4067 79.285 48.3325C79.5425 48.2501 79.7335 48.1429 79.8581 47.9946C79.9827 47.8463 80.0492 47.6732 80.0492 47.4754C80.0492 47.2777 80.0076 47.1458 79.9163 47.0552C79.8332 46.9563 79.7003 46.8986 79.5425 46.8656C79.3763 46.8327 79.1687 46.8162 78.9361 46.8162H78.1221C77.9061 46.8162 77.7233 46.8491 77.5655 46.9151C77.4077 46.981 77.2831 47.0799 77.2 47.2035C77.117 47.3353 77.0754 47.4919 77.0754 47.6815C77.0754 47.9369 77.1834 48.1265 77.3994 48.2583C77.6154 48.3902 77.9227 48.4561 78.3214 48.4561H78.3131V48.4479ZM78.4959 44.7065C78.8364 44.7065 79.0939 44.6241 79.2684 44.4511C79.4428 44.278 79.5258 44.0308 79.5258 43.7011C79.5258 43.355 79.4428 43.0913 79.26 42.9183C79.0856 42.7452 78.8281 42.6545 78.4875 42.6545C78.147 42.6545 77.9061 42.7452 77.7317 42.9265C77.5572 43.1078 77.4659 43.3715 77.4659 43.7176C77.4659 44.039 77.5572 44.278 77.7317 44.4511C77.9061 44.6241 78.1636 44.7065 78.4959 44.7065Z" fill="white"/>
<path d="M83.5712 42.1354C83.9783 42.1354 84.3188 42.226 84.6095 42.3991C84.9003 42.5721 85.1162 42.8194 85.2658 43.1408C85.4153 43.4539 85.4983 43.8247 85.4983 44.2533V44.69H82.2422C82.2505 45.2422 82.3917 45.6542 82.6575 45.9426C82.9233 46.2311 83.3054 46.3712 83.7872 46.3712C84.0862 46.3712 84.352 46.3464 84.5763 46.2888C84.8089 46.2311 85.0415 46.1569 85.2907 46.0498V46.6761C85.0498 46.7832 84.8172 46.8574 84.5846 46.9068C84.352 46.9563 84.0779 46.981 83.754 46.981C83.3054 46.981 82.9067 46.8903 82.5662 46.7008C82.2256 46.5195 81.9681 46.2476 81.777 45.8932C81.5943 45.5388 81.4946 45.1021 81.4946 44.5911C81.4946 44.0802 81.5777 43.6517 81.7521 43.2809C81.9266 42.91 82.1675 42.6298 82.4748 42.432C82.7904 42.2343 83.1559 42.1354 83.5712 42.1354ZM83.5629 42.7122C83.1808 42.7122 82.8818 42.8358 82.6492 43.0831C82.4166 43.3303 82.2837 43.6764 82.2422 44.1214H84.7341C84.7341 43.8412 84.6843 43.594 84.6012 43.388C84.5182 43.1737 84.3853 43.0089 84.2191 42.8935C84.0447 42.7782 83.8287 42.7122 83.5546 42.7122H83.5629Z" fill="white"/>
<path d="M89.7014 40.2565V41.9211C89.7014 42.1107 89.7014 42.292 89.6848 42.4733C89.6765 42.6546 89.6682 42.7946 89.6599 42.8935H89.7014C89.8343 42.6793 90.0171 42.5062 90.258 42.3579C90.4988 42.2095 90.8145 42.1436 91.1966 42.1436C91.7863 42.1436 92.2598 42.3496 92.6087 42.7534C92.9576 43.1572 93.132 43.7588 93.132 44.5664C93.132 45.0938 93.0489 45.5388 92.8911 45.9014C92.7333 46.264 92.5007 46.536 92.21 46.7255C91.9193 46.9068 91.5704 47.0057 91.1717 47.0057C90.7979 47.0057 90.4905 46.9398 90.2497 46.7997C90.0088 46.6596 89.826 46.4948 89.6931 46.2888H89.635L89.4855 46.9151H88.9705V40.273H89.6848L89.7014 40.2565ZM91.0803 42.7287C90.7397 42.7287 90.4656 42.7946 90.2663 42.9265C90.0669 43.0584 89.9257 43.2561 89.8343 43.5281C89.7513 43.7918 89.7014 44.1297 89.7014 44.5417V44.5747C89.7014 45.168 89.8011 45.613 90.0005 45.9262C90.1998 46.2393 90.557 46.3959 91.0803 46.3959C91.5205 46.3959 91.8445 46.2393 92.0688 45.9179C92.2847 45.5965 92.401 45.1433 92.401 44.5499C92.401 43.9566 92.293 43.4951 92.0771 43.1902C91.8611 42.8853 91.5288 42.7287 91.0886 42.7287H91.0803Z" fill="white"/>
<path d="M98.448 44.5582C98.448 44.9455 98.3982 45.2834 98.2985 45.5883C98.1988 45.8932 98.0576 46.1404 97.8666 46.3547C97.6755 46.5607 97.4512 46.7173 97.1771 46.8327C96.903 46.948 96.604 46.9975 96.2634 46.9975C95.9478 46.9975 95.6571 46.9398 95.3996 46.8327C95.1337 46.7255 94.9095 46.5689 94.7184 46.3547C94.5274 46.1487 94.3779 45.8932 94.2782 45.5883C94.1702 45.2834 94.1204 44.9455 94.1204 44.5582C94.1204 44.0472 94.2117 43.6105 94.3862 43.2479C94.5606 42.8853 94.8098 42.6133 95.1421 42.4238C95.466 42.2343 95.8564 42.1436 96.305 42.1436C96.7535 42.1436 97.1107 42.2425 97.4346 42.432C97.7586 42.6216 98.0078 42.9018 98.1905 43.2561C98.3733 43.6187 98.4563 44.0555 98.4563 44.5582H98.448ZM94.8596 44.5582C94.8596 44.929 94.9095 45.2587 95.0092 45.5388C95.1088 45.819 95.2667 46.025 95.4743 46.1816C95.682 46.33 95.9561 46.4124 96.28 46.4124C96.604 46.4124 96.8781 46.3382 97.0858 46.1816C97.2934 46.0333 97.4513 45.819 97.5509 45.5388C97.6506 45.2587 97.7004 44.9373 97.7004 44.5582C97.7004 44.1791 97.6506 43.866 97.5509 43.594C97.4513 43.3221 97.2934 43.1078 97.0858 42.9677C96.8781 42.8194 96.604 42.7452 96.2717 42.7452C95.7817 42.7452 95.4162 42.9018 95.1919 43.2314C94.9593 43.5528 94.8513 43.9978 94.8513 44.5664L94.8596 44.5582Z" fill="white"/>
<path d="M101.206 46.4041C101.322 46.4041 101.447 46.4041 101.571 46.3712C101.696 46.3465 101.796 46.33 101.87 46.297V46.8491C101.787 46.8821 101.671 46.9151 101.521 46.948C101.372 46.981 101.231 46.981 101.09 46.981C100.84 46.981 100.616 46.9398 100.408 46.8491C100.201 46.7667 100.043 46.6184 99.9183 46.4041C99.7937 46.1981 99.7356 45.9097 99.7356 45.5388V42.7617H99.0627V42.4156L99.7356 42.1354L100.018 41.1218H100.45V42.2096H101.829V42.7617H100.45V45.5141C100.45 45.8026 100.516 46.0251 100.658 46.1734C100.79 46.3217 100.973 46.3877 101.206 46.3877V46.4041Z" fill="white"/>
<path d="M16.5132 32.7656C25.6337 32.7656 33.0265 25.4312 33.0265 16.3828C33.0265 7.33434 25.6337 0 16.5132 0C7.39274 0 0 7.33434 0 16.3828C0 25.4312 7.39274 32.7656 16.5132 32.7656Z" fill="black"/>
<path d="M40.0038 20.4702H47.3633C47.463 20.4702 47.546 20.5114 47.6125 20.5938C47.6955 20.6597 47.7371 20.7504 47.7371 20.8575V21.5168C47.7371 21.6157 47.6955 21.6981 47.6125 21.7805C47.546 21.8464 47.463 21.8794 47.3633 21.8794H38.7827C38.683 21.8794 38.6 21.8464 38.5169 21.7805C38.4505 21.6981 38.4172 21.6074 38.4172 21.5168V11.669C38.4172 11.5619 38.4505 11.4712 38.5169 11.4053C38.6 11.3229 38.6913 11.2817 38.7827 11.2817H47.2636C47.3716 11.2817 47.463 11.3229 47.5294 11.4053C47.6125 11.4712 47.654 11.5619 47.654 11.669V12.3283C47.654 12.4272 47.6125 12.5096 47.5294 12.592C47.463 12.6579 47.3716 12.6909 47.2636 12.6909H40.0121V20.462L40.0038 20.4702ZM41.1418 16.0284C41.1418 15.9213 41.175 15.8306 41.2414 15.7647C41.3079 15.6988 41.3993 15.6658 41.5072 15.6658H46.7071C46.8068 15.6658 46.8898 15.6988 46.9563 15.7647C47.0393 15.8306 47.0809 15.9213 47.0809 16.0284V16.6629C47.0809 16.7701 47.0393 16.8607 46.9563 16.9267C46.8898 16.9926 46.8068 17.0255 46.7071 17.0255H41.5072C41.3993 17.0255 41.3079 16.9926 41.2414 16.9267C41.175 16.8607 41.1418 16.7701 41.1418 16.6629V16.0284Z" fill="black"/>
<path d="M55.5535 16.3168L60.3214 21.558C60.3878 21.6239 60.4211 21.6981 60.4211 21.7805C60.4211 21.8464 60.3712 21.8794 60.2798 21.8794H58.7016C58.6019 21.8794 58.5023 21.8217 58.3943 21.7146L54.5567 17.3964L51.0098 21.7146C51.0098 21.7146 50.9185 21.797 50.8686 21.8382C50.8105 21.8629 50.7607 21.8794 50.7025 21.8794H49.2489C49.1492 21.8794 49.1077 21.8382 49.1077 21.7558C49.1077 21.6899 49.1409 21.6157 49.2073 21.5498L57.6882 11.43C57.7713 11.3229 57.871 11.2652 57.979 11.2652H59.4077C59.5156 11.2652 59.5738 11.3064 59.5738 11.3888C59.5738 11.43 59.5406 11.4959 59.4741 11.5948L55.5535 16.3003V16.3168ZM49.2738 11.6113C49.2073 11.5454 49.1741 11.4712 49.1741 11.3888C49.1741 11.3229 49.224 11.2899 49.3153 11.2899H50.852C50.9517 11.2899 51.0514 11.3476 51.1594 11.4547L53.7261 14.3308C53.751 14.3885 53.7676 14.4297 53.7676 14.4544C53.7676 14.4956 53.751 14.5286 53.7261 14.5533L53.02 15.4351C53.02 15.4351 52.9286 15.4927 52.8788 15.4927C52.8373 15.4927 52.7957 15.4763 52.7542 15.4351L49.2738 11.6113Z" fill="black"/>
<path d="M63.9596 12.6991V20.4702H69.0597C69.583 20.4702 70.015 20.3054 70.3472 19.9758C70.6961 19.6296 70.8622 19.2258 70.8622 18.7396C70.8622 18.2864 70.721 17.8908 70.4303 17.5447C70.1562 17.1904 69.7492 17.0091 69.2259 17.0091H65.5129C65.4049 17.0091 65.3135 16.9761 65.2471 16.9102C65.1806 16.8442 65.1474 16.7536 65.1474 16.6465V16.0284C65.1474 15.9213 65.1806 15.8306 65.2471 15.7647C65.3135 15.6988 65.4049 15.6658 65.5129 15.6658H69.0348C69.5083 15.6658 69.8738 15.5257 70.1313 15.2373C70.4054 14.9324 70.5466 14.5863 70.5466 14.1907C70.5466 13.7951 70.3971 13.4325 70.0897 13.1441C69.799 12.8557 69.4335 12.7156 68.9933 12.7156H63.9596V12.6991ZM62.3813 11.669C62.3813 11.5619 62.4146 11.4712 62.481 11.4053C62.5475 11.3229 62.6388 11.2817 62.7468 11.2817H69.1345C69.5249 11.2817 69.8904 11.3558 70.2309 11.5042C70.5881 11.6525 70.9038 11.8585 71.1613 12.1222C71.4271 12.3695 71.6347 12.6744 71.7843 13.0287C71.9338 13.3748 72.0085 13.7374 72.0085 14.1165C72.0085 14.5533 71.9088 14.9571 71.7012 15.3279C71.5101 15.6988 71.2526 16.0119 70.937 16.2756C71.3523 16.5641 71.6846 16.9266 71.9338 17.3634C72.1996 17.7919 72.3242 18.2617 72.3242 18.7808C72.3242 19.2094 72.2411 19.6132 72.075 19.9922C71.9088 20.3631 71.6846 20.6927 71.3938 20.9811C71.1197 21.2531 70.7875 21.4756 70.3971 21.6404C70.0233 21.8052 69.6246 21.8876 69.1926 21.8876H62.7468C62.6388 21.8876 62.5475 21.8547 62.481 21.7887C62.4146 21.7228 62.3813 21.6322 62.3813 21.525V11.6772V11.669Z" fill="black"/>
<path d="M75.406 11.6525C75.406 11.5454 75.4392 11.4547 75.5057 11.3888C75.5888 11.3229 75.6801 11.2899 75.7715 11.2899H76.6437C76.7433 11.2899 76.8264 11.3229 76.8929 11.3888C76.9759 11.4547 77.0175 11.5454 77.0175 11.6525V21.525C77.0175 21.6239 76.9759 21.7063 76.8929 21.7887C76.8264 21.8547 76.7433 21.8876 76.6437 21.8876H75.7715C75.6718 21.8876 75.5888 21.8547 75.5057 21.7887C75.4392 21.7063 75.406 21.6157 75.406 21.525V11.6525Z" fill="black"/>
<path d="M78.5293 11.6525C78.5293 11.5536 78.5625 11.4712 78.629 11.4053C78.6954 11.3229 78.7868 11.2817 78.8948 11.2817H88.5718C88.6798 11.2817 88.7712 11.3229 88.8376 11.4053C88.9041 11.4712 88.9373 11.5536 88.9373 11.6525V12.3118C88.9373 12.5755 88.8127 12.6991 88.5635 12.6991H78.8865C78.7785 12.6991 78.6871 12.6661 78.6207 12.6002C78.5542 12.5178 78.521 12.4189 78.521 12.3118V11.6525H78.5293ZM82.9234 14.1989C82.9234 14.0918 82.9566 14.0012 83.0231 13.9352C83.1062 13.8693 83.2058 13.8363 83.3138 13.8363H84.1445C84.2525 13.8363 84.3438 13.8693 84.4186 13.9352C84.4933 14.0012 84.5183 14.0918 84.5183 14.1989V21.5168C84.5183 21.6239 84.485 21.7146 84.4186 21.7805C84.3521 21.8464 84.2608 21.8794 84.1445 21.8794H83.3138C83.2058 21.8794 83.1062 21.8464 83.0231 21.7805C82.9566 21.7146 82.9234 21.6239 82.9234 21.5168V14.1989Z" fill="black"/>
<path d="M66.9914 28.777V32.1475H69.201C69.4252 32.1475 69.6163 32.0733 69.7575 31.9332C69.907 31.7849 69.9818 31.6036 69.9818 31.3976C69.9818 31.1916 69.9153 31.0267 69.7907 30.8784C69.6744 30.7218 69.5 30.6477 69.2674 30.6477H67.656C67.6061 30.6477 67.5729 30.6312 67.5397 30.6065C67.5064 30.5735 67.4981 30.5405 67.4981 30.4911V30.2274C67.4981 30.1779 67.5147 30.145 67.5397 30.112C67.5729 30.079 67.6061 30.0708 67.656 30.0708H69.1843C69.392 30.0708 69.5498 30.0049 69.6578 29.8813C69.7741 29.7494 69.8406 29.6011 69.8406 29.428C69.8406 29.255 69.7741 29.0984 69.6412 28.9748C69.5166 28.8512 69.3588 28.7852 69.1677 28.7852H66.9831H66.9914V28.777ZM66.3103 28.332C66.3103 28.2825 66.3269 28.2496 66.3518 28.2166C66.3851 28.1837 66.4183 28.1672 66.4681 28.1672H69.2342C69.4003 28.1672 69.5581 28.2001 69.7076 28.2661C69.8655 28.332 69.9984 28.4226 70.1147 28.5298C70.231 28.6369 70.3223 28.7688 70.3805 28.9253C70.4469 29.0737 70.4801 29.2302 70.4801 29.3951C70.4801 29.5846 70.4386 29.7577 70.3472 29.9225C70.2642 30.079 70.1562 30.2191 70.015 30.3345C70.1977 30.4581 70.3389 30.6147 70.4469 30.8042C70.5632 30.9855 70.6214 31.1916 70.6214 31.4223C70.6214 31.6036 70.5881 31.7849 70.5134 31.9497C70.4386 32.1063 70.3389 32.2546 70.2143 32.3782C70.098 32.4936 69.9485 32.5925 69.7824 32.6667C69.6246 32.7408 69.4501 32.7738 69.2591 32.7738H66.4598C66.41 32.7738 66.3768 32.7573 66.3435 32.7326C66.3103 32.6996 66.302 32.6667 66.302 32.6172V28.332H66.3103Z" fill="url(#paint1_linear_50_1797)"/>
<path d="M71.6846 28.7688C71.6846 28.6946 71.7012 28.6287 71.7427 28.5545C71.7842 28.4803 71.8341 28.4226 71.8839 28.365C71.9421 28.3073 72.0085 28.2578 72.0833 28.2249C72.158 28.1837 72.2245 28.1589 72.2992 28.1589H75.9126C75.9873 28.1589 76.0538 28.1837 76.1285 28.2249C76.2033 28.2578 76.2614 28.3073 76.3196 28.365C76.3777 28.4226 76.4276 28.4803 76.4608 28.5545C76.5023 28.6287 76.5272 28.6946 76.5272 28.7688V32.1557C76.5272 32.2299 76.5023 32.2958 76.4608 32.37C76.4276 32.4442 76.3777 32.5101 76.3196 32.5678C76.2697 32.6172 76.2033 32.6667 76.1285 32.7079C76.0538 32.7408 75.9873 32.7656 75.9126 32.7656H72.2992C72.2245 32.7656 72.158 32.7491 72.0833 32.7079C72.0085 32.6667 71.9421 32.6172 71.8839 32.5678C71.8341 32.5101 71.7842 32.4442 71.7427 32.37C71.7095 32.2958 71.6846 32.2299 71.6846 32.1557V28.7688ZM72.3823 32.1475H75.8129V28.777H72.3823V32.1475Z" fill="url(#paint2_linear_50_1797)"/>
<path d="M76.8928 28.3238C76.8928 28.3238 76.9094 28.2496 76.9344 28.2166C76.9676 28.1837 77.0008 28.1672 77.0506 28.1672H81.2454C81.2952 28.1672 81.3285 28.1837 81.3617 28.2166C81.3949 28.2496 81.4032 28.2825 81.4032 28.3238V28.6122C81.4032 28.7276 81.3534 28.7852 81.2454 28.7852H77.0506C77.0008 28.7852 76.9676 28.7688 76.9344 28.744C76.9011 28.7111 76.8928 28.6699 76.8928 28.6204V28.332V28.3238ZM78.795 29.428C78.795 29.3786 78.8116 29.3456 78.8365 29.3127C78.8698 29.2797 78.9113 29.2714 78.9611 29.2714H79.3183C79.3681 29.2714 79.4014 29.2879 79.4346 29.3127C79.4678 29.3456 79.4761 29.3786 79.4761 29.428V32.6007C79.4761 32.6502 79.4595 32.6832 79.4346 32.7161C79.4014 32.7491 79.3681 32.7573 79.3183 32.7573H78.9611C78.9113 32.7573 78.8698 32.7408 78.8365 32.7161C78.8033 32.6832 78.795 32.6502 78.795 32.6007V29.428Z" fill="url(#paint3_linear_50_1797)"/>
<path fill-rule="evenodd" clip-rule="evenodd" d="M15.691 2.06023C13.6393 2.2745 11.7537 3.2634 10.5659 4.84564C9.90971 5.71916 9.41132 6.87288 9.2452 7.91947C9.18705 8.26558 9.18705 8.89189 9.2452 9.20504C9.3781 9.93847 9.72697 10.5977 10.2752 11.1416C10.5908 11.4548 10.9812 11.7103 11.4879 11.9575C12.8336 12.6003 14.4783 12.864 16.9037 12.8145C18.8807 12.7816 20.218 12.5179 21.3892 11.941C22.6103 11.3394 23.3246 10.4988 23.5572 9.3781C23.6237 9.06494 23.6403 8.45512 23.5987 8.04308C23.4409 6.47732 22.8096 5.22471 21.5886 4.04628C20.4506 2.942 19.0468 2.3157 17.4686 2.0932C16.9619 2.03551 16.0482 2.02727 15.691 2.06023ZM17.5101 3.56831C18.3657 3.71664 19.0468 3.98035 19.7529 4.45008C20.9988 5.27416 21.7464 6.34547 22.0371 7.73817C22.1368 8.19966 22.1617 8.84244 22.0953 9.12263C22.0039 9.50995 21.763 9.88903 21.4391 10.161C20.4672 10.9768 18.8308 11.3641 16.3887 11.3641C14.4949 11.3641 13.2655 11.1581 12.2189 10.6719C11.1474 10.1692 10.6739 9.54291 10.6656 8.60346C10.6573 7.17779 11.5212 5.59555 12.8502 4.60665C13.6808 3.98859 14.5779 3.65072 15.7076 3.5271C16.0648 3.4859 17.1779 3.51062 17.4935 3.56831H17.5101ZM12.9499 7.40854C12.709 7.42502 12.4764 7.4827 12.2521 7.57335C11.978 7.68048 11.7288 7.91947 11.7122 8.2079C11.6873 8.50457 11.895 8.73531 12.1275 8.90013C12.7921 9.36985 13.8553 9.72421 14.661 9.49347C14.8022 9.45226 14.9434 9.36985 15.0265 9.24624C15.1345 9.08143 15.1262 8.86716 15.0597 8.67762C14.852 8.12549 14.3121 7.67224 13.7639 7.49094C13.4981 7.40854 13.224 7.37557 12.9582 7.40029H12.9499V7.40854ZM19.1631 7.4415C18.972 7.47446 18.781 7.53215 18.5983 7.61456C18.1082 7.8453 17.1862 8.6117 17.5683 9.238C17.6845 9.42754 17.9088 9.51819 18.1248 9.54291C18.7312 9.61708 19.3791 9.46874 19.9356 9.22152C20.3758 9.02374 21.1566 8.50457 20.8078 7.92771C20.733 7.8041 20.6167 7.72169 20.4921 7.65576C20.0934 7.4415 19.62 7.36733 19.1714 7.4415H19.1631ZM26.4312 12.7074C26.1405 12.8228 25.8083 13.548 25.6754 14.3391C25.4262 15.8966 25.0025 17.4294 24.6204 18.9622C24.1304 20.9647 23.6403 22.9755 23.0422 24.9533C23.0256 25.011 22.8678 25.4148 22.9425 25.4642C23.0173 25.5136 23.2582 25.1923 23.2914 25.1511C23.9725 24.3435 24.4211 23.404 24.9278 22.4893C25.5674 21.3191 26.1322 20.1159 26.6223 18.8715C26.8798 18.2123 27.0958 17.5365 27.2453 16.8443C27.4779 15.7235 27.6274 14.2814 27.129 13.2101C26.9296 12.7733 26.6887 12.6085 26.4229 12.7156H26.4312V12.7074ZM5.95584 12.7733C5.61528 13.0453 5.40761 13.9188 5.37439 14.2072C5.22487 15.4681 5.41592 16.7536 5.78141 17.9568C6.1635 19.2341 6.71173 20.462 7.3264 21.6487C7.89124 22.7447 8.49761 23.8572 9.20366 24.8709C9.29503 25.0027 9.54423 25.4642 9.74358 25.4642C9.81003 25.4642 9.80173 25.4065 9.65221 24.9121C9.04584 22.9095 8.55576 20.8658 8.05737 18.8386C7.8414 17.9486 7.60882 17.0586 7.41778 16.1603C7.30149 15.6082 7.1935 15.0478 7.06891 14.4957C6.95261 13.9765 6.86955 13.3831 6.5456 12.9464C6.32963 12.6497 6.13028 12.6415 5.96415 12.7733H5.95584ZM8.8631 12.9546C8.72189 12.9793 8.58068 13.037 8.481 13.1359C8.26503 13.3419 8.24011 13.6716 8.28165 13.96C8.46439 15.3692 8.63882 16.7784 8.90463 18.1793C9.20366 19.8192 9.59407 21.4509 10.1257 23.0332C10.5576 24.327 11.0892 25.6043 11.787 26.791C12.601 28.1837 13.7473 29.5269 15.284 30.1368C17.7427 31.1092 19.8608 28.8265 20.9905 26.9311C22.3445 24.6731 23.1004 22.0937 23.6569 19.539C23.9061 18.4018 24.1137 17.2563 24.2633 16.1026C24.3131 15.7071 24.3629 15.3115 24.4045 14.9159C24.446 14.4874 24.554 14.0671 24.5291 13.6386C24.5208 13.4738 24.4792 13.3007 24.3712 13.1689C24.2051 12.9629 23.8978 12.9217 23.632 12.9546C23.1419 13.0288 22.6684 13.1854 22.1783 13.276C21.7464 13.3584 21.3145 13.4161 20.8825 13.4655C19.8276 13.5892 18.7644 13.6386 17.7012 13.6633C17.1446 13.6716 16.5881 13.6798 16.0233 13.6798C14.2125 13.6798 13.7058 13.6551 12.4764 13.5232C11.9365 13.4655 11.3966 13.3831 10.8566 13.2925C10.3167 13.2018 9.82665 13.0535 9.30334 12.9546C9.16213 12.9299 9.00431 12.9217 8.8631 12.9464V12.9546ZM10.3084 14.7099C11.5129 14.8995 12.7754 15.0313 14.2374 15.1302C15.1012 15.1879 17.942 15.1796 18.8475 15.1137C20.11 15.0231 21.3726 14.8912 22.5189 14.7099C22.7515 14.677 22.9508 14.644 22.9508 14.6522C22.9508 14.6522 22.9176 14.9654 22.8761 15.3362C22.4109 19.0116 21.4972 22.5469 20.3758 24.9615C19.6366 26.5602 18.673 27.8623 17.8175 28.4309C17.3025 28.7688 16.9037 28.9006 16.3887 28.9006C15.8737 28.9006 15.4003 28.7358 14.9434 28.4062C14.6278 28.1754 14.0297 27.5574 13.7307 27.1536C12.8668 25.9999 11.9946 24.1457 11.3633 22.1184C10.8982 20.6186 10.5742 19.1435 10.026 15.9048C9.91802 15.262 9.81834 14.7099 9.81003 14.677C9.79342 14.611 9.77681 14.611 10.3084 14.6934V14.7099ZM16.1894 16.2262C15.691 16.2839 15.1843 16.4487 14.7524 16.7042C14.3121 16.9597 13.7888 17.4459 13.6808 17.7013C13.6227 17.8332 13.6476 18.0639 13.7307 18.1793C13.8137 18.3029 13.9882 18.3853 14.146 18.3853C14.3204 18.3853 14.362 18.3606 14.6444 18.0804C15.0431 17.6766 15.4335 17.4376 15.9236 17.3058C16.2475 17.2151 16.829 17.2151 17.1612 17.3058C17.6513 17.4376 18.0999 17.7178 18.4238 18.0969C18.5152 18.204 18.5816 18.2947 18.5816 18.2947C18.5816 18.2947 18.4487 18.2452 18.3075 18.1711C18.0666 18.0557 18.0251 18.0392 17.8922 18.0557C17.6015 18.0804 17.4021 18.3441 17.4437 18.6326C17.4769 18.8633 17.5849 18.9375 18.5567 19.4237C19.3209 19.811 19.4206 19.8522 19.5452 19.844C19.6947 19.844 19.8193 19.7863 19.8941 19.7039C19.919 19.6709 20.1433 19.2424 20.3925 18.7479C20.7995 17.9238 20.841 17.8249 20.841 17.6931C20.841 17.5036 20.7413 17.347 20.5669 17.2646C20.4174 17.1904 20.326 17.1904 20.1848 17.2481C20.027 17.314 19.9854 17.3635 19.8027 17.7096L19.6283 18.031L19.4538 17.7673C19.2462 17.4541 18.8142 17.0173 18.5318 16.8278C17.8175 16.3663 16.9868 16.1521 16.206 16.2427L16.1894 16.2262ZM13.3735 19.7945C13.1741 19.844 13.1409 19.8852 12.6591 20.8576C12.2272 21.7146 12.1857 21.8053 12.1857 21.9371C12.1857 22.1267 12.2937 22.2997 12.4681 22.3739C12.6176 22.4398 12.7256 22.4398 12.8751 22.3739C13.0246 22.308 13.0745 22.242 13.2572 21.8877L13.4067 21.6075L13.5812 21.8712C13.7888 22.1844 14.2125 22.6211 14.5115 22.8107C15.9651 23.7666 17.7842 23.5688 19.0219 22.3327C19.1465 22.2008 19.2794 22.0443 19.3126 21.9783C19.4704 21.6487 19.2877 21.2861 18.9388 21.2531C18.7145 21.2284 18.6564 21.2531 18.3823 21.5416C17.9587 21.9618 17.5849 22.2008 17.0865 22.3327C16.7958 22.4069 16.1894 22.4151 15.8987 22.3492C15.3837 22.2256 14.9268 21.9371 14.553 21.5086C14.4783 21.4262 14.4201 21.352 14.4284 21.3438C14.4284 21.3438 14.5613 21.3932 14.7025 21.4674C14.9434 21.5828 14.985 21.5993 15.1179 21.5828C15.4169 21.558 15.6245 21.2779 15.5664 20.9729C15.5332 20.7752 15.3754 20.6763 14.4616 20.223C13.9965 19.9923 13.5812 19.8027 13.5313 19.7945C13.4815 19.7945 13.3984 19.7945 13.3486 19.8027H13.3735V19.7945Z" fill="url(#paint4_linear_50_1797)"/>
<defs>
<linearGradient id="paint0_linear_50_1797" x1="9.39453" y1="17.4664" x2="103.002" y2="17.4664" gradientUnits="userSpaceOnUse">
<stop stop-color="#0FDA9A"/>
<stop offset="1" stop-color="#4BC6F6"/>
</linearGradient>
<linearGradient id="paint1_linear_50_1797" x1="66.302" y1="30.4705" x2="70.6214" y2="30.4705" gradientUnits="userSpaceOnUse">
<stop stop-color="#0FDA9A"/>
<stop offset="1" stop-color="#4BC6F6"/>
</linearGradient>
<linearGradient id="paint2_linear_50_1797" x1="71.6846" y1="30.4622" x2="76.5272" y2="30.4622" gradientUnits="userSpaceOnUse">
<stop stop-color="#0FDA9A"/>
<stop offset="1" stop-color="#4BC6F6"/>
</linearGradient>
<linearGradient id="paint3_linear_50_1797" x1="76.8928" y1="30.4622" x2="81.4032" y2="30.4622" gradientUnits="userSpaceOnUse">
<stop stop-color="#0FDA9A"/>
<stop offset="1" stop-color="#4BC6F6"/>
</linearGradient>
<linearGradient id="paint4_linear_50_1797" x1="5.32324" y1="16.2048" x2="27.4614" y2="16.2048" gradientUnits="userSpaceOnUse">
<stop stop-color="#0FDA9A"/>
<stop offset="1" stop-color="#4BC6F6"/>
</linearGradient>
</defs>
</svg>
